HIERARCHY
ROOT Hips
{
 OFFSET 0.000000 0.000000 0.000000
 CHANNELS 6 Xposition Yposition Zposition Yrotation Xrotation Zrotation
 JOINT Chest
 {
  OFFSET 0.000000 14.374500 -0.011500
  CHANNELS 3 Yrotation Xrotation Zrotation
  JOINT Chest2
  {
   OFFSET 0.000000 9.203400 0.023400
   CHANNELS 3 Yrotation Xrotation Zrotation
   JOINT Chest3
   {
    OFFSET 0.000000 9.162700 0.000000
    CHANNELS 3 Yrotation Xrotation Zrotation
    JOINT Chest4
    {
     OFFSET 0.000000 9.153300 0.000000
     CHANNELS 3 Yrotation Xrotation Zrotation
     JOINT Neck
     {
      OFFSET 0.000000 13.353600 0.000000
      CHANNELS 3 Yrotation Xrotation Zrotation
      JOINT Head
      {
       OFFSET 0.000000 8.573800 0.049400
       CHANNELS 3 Yrotation Xrotation Zrotation
       End Site
       {
        OFFSET 0.000000 16.219200 0.026100
       }
      }
     }
     JOINT RightCollar
     {
      OFFSET -2.497100 8.876100 0.000000
      CHANNELS 3 Yrotation Xrotation Zrotation
      JOINT RightShoulder
      {
       OFFSET -12.289200 0.000000 0.000000
       CHANNELS 3 Yrotation Xrotation Zrotation
       JOINT RightElbow
       {
        OFFSET 0.000000 -28.194900 0.000000
        CHANNELS 3 Yrotation Xrotation Zrotation
        JOINT RightWrist
        {
         OFFSET 0.000000 -23.009700 0.007900
         CHANNELS 3 Yrotation Xrotation Zrotation
         End Site
         {
          OFFSET 0.000000 -17.151500 0.000000
         }
        }
       }
      }
     }
     JOINT LeftCollar
     {
      OFFSET 2.497100 8.876100 0.000000
      CHANNELS 3 Yrotation Xrotation Zrotation
      JOINT LeftShoulder
      {
       OFFSET 12.289200 0.000000 0.000000
       CHANNELS 3 Yrotation Xrotation Zrotation
       JOINT LeftElbow
       {
        OFFSET 0.000000 -28.194900 0.000000
        CHANNELS 3 Yrotation Xrotation Zrotation
        JOINT LeftWrist
        {
         OFFSET 0.000000 -23.009700 0.007900
         CHANNELS 3 Yrotation Xrotation Zrotation
         End Site
         {
          OFFSET 0.000000 -17.151500 0.000000
         }
        }
       }
      }
     }
    }
   }
  }
 }
 JOINT RightHip
 {
  OFFSET -11.777600 0.056700 0.005700
  CHANNELS 3 Yrotation Xrotation Zrotation
  JOINT RightKnee
  {
   OFFSET 0.000000 -39.966000 -0.004200
   CHANNELS 3 Yrotation Xrotation Zrotation
   JOINT RightAnkle
   {
    OFFSET 0.000000 -41.981900 0.027400
    CHANNELS 3 Yrotation Xrotation Zrotation
    JOINT RightToe
    {
     OFFSET 0.000000 -9.910600 16.950100
     CHANNELS 3 Yrotation Xrotation Zrotation
     End Site
     {
      OFFSET 0.000000 -1.461000 6.191600
     }
    }
   }
  }
 }
 JOINT LeftHip
 {
  OFFSET 11.777600 0.056700 0.005700
  CHANNELS 3 Yrotation Xrotation Zrotation
  JOINT LeftKnee
  {
   OFFSET 0.000000 -39.966000 -0.004200
   CHANNELS 3 Yrotation Xrotation Zrotation
   JOINT LeftAnkle
   {
    OFFSET 0.000000 -41.981900 0.027400
    CHANNELS 3 Yrotation Xrotation Zrotation
    JOINT LeftToe
    {
     OFFSET 0.000000 -9.910600 16.950100
     CHANNELS 3 Yrotation Xrotation Zrotation
     End Site
     {
      OFFSET 0.000000 -1.461000 6.191600
     }
    }
   }
  }
 }
}
MOTION
Frames: 12
Frame Time: 0.008333
-6.447750 130.428637 90.240935 176.081725 -52.279451 -3.666361 3.843408 26.993453 3.945152 0.534284 4.762481 0.538793 0.844061 7.482788 0.882390 2.978880 22.064098 3.008803 -0.791547 15.222435 -2.274771 -0.312794 -9.741027 -2.198490 0.661081 -3.910531 0.051685 8.760404 -17.549265 -8.204225 21.181092 -57.909206 -8.072915 24.715039 30.233945 -11.713878 -11.454391 -5.737158 0.082760 -4.442574 -21.081306 2.375214 24.609370 -38.642803 -37.217217 -6.460974 -15.505541 45.591177 5.661468 -25.324605 0.671697 -80.832372 86.162404 -84.250302 3.125178 -25.686551 8.176606 0.000633 -0.003733 0.000370 -0.070260 -19.986709 -4.374702 138.196530 72.174747 148.405866 3.827514 -9.243802 -5.104168 -0.062329 -0.071793 -0.036422
-6.449915 130.428055 90.237141 176.095646 -52.254282 -3.646516 3.853756 27.020306 3.918685 0.530556 4.758650 0.537626 0.834555 7.462161 0.885286 2.988673 22.087900 2.995785 -0.806095 15.135426 -2.260297 -0.335324 -9.851678 -2.168539 0.669184 -3.847811 0.046968 8.731144 -17.624054 -8.187914 21.198084 -57.952253 -8.094107 24.712424 30.238447 -11.721600 -11.449783 -5.696770 0.060602 -4.428938 -21.109520 2.410570 24.746850 -38.564609 -37.306917 -6.439916 -15.473257 45.590223 5.668557 -25.345914 0.641789 -80.906162 86.160020 -84.335766 3.121647 -25.687440 8.187371 -0.005413 -0.003260 -0.003165 -0.020446 -19.944124 -4.373956 138.057497 72.191706 148.347829 3.723500 -9.410073 -5.358133 -0.060955 -0.080400 -0.035615
-6.448788 130.428146 90.233314 176.114019 -52.232195 -3.643891 3.859253 27.041885 3.904768 0.532649 4.765564 0.534972 0.859021 7.515493 0.871854 2.960496 21.999477 3.013741 -0.812571 15.100091 -2.257646 -0.365177 -9.986451 -2.142427 0.681711 -3.765829 0.034008 8.700280 -17.606133 -8.166697 21.250929 -58.068028 -8.164408 24.709541 30.243664 -11.727251 -11.429411 -5.618189 0.013343 -4.412285 -21.136373 2.447630 24.904046 -38.502878 -37.426647 -6.420891 -15.432894 45.588339 5.671279 -25.362384 0.637517 -80.954352 86.149358 -84.399364 3.108101 -25.689806 8.210173 -0.011689 -0.004840 -0.006834 0.026152 -19.910430 -4.364785 137.854189 72.160241 148.241817 3.567699 -9.593189 -5.606594 -0.058709 -0.071693 -0.034306
-6.443990 130.433404 90.226082 176.086153 -52.237662 -3.619057 3.896568 27.079007 3.907901 0.538937 4.785725 0.530462 0.867496 7.542551 0.864290 2.978888 22.053455 2.982961 -0.841307 14.916533 -2.205605 -0.389646 -10.103594 -2.106878 0.664160 -3.799447 0.074566 8.672855 -17.588304 -8.145214 21.277441 -58.203210 -8.202033 24.721108 30.262872 -11.741278 -11.444204 -5.658916 0.056465 -4.378555 -21.141263 2.468830 25.074464 -38.462518 -37.578814 -6.414369 -15.386220 45.588624 5.695157 -25.355689 0.651309 -80.972319 86.132783 -84.422092 3.106820 -25.685213 8.212760 -0.004094 -0.004838 -0.002394 0.132302 -19.827696 -4.305544 137.762636 72.197464 148.264315 3.412415 -9.771611 -5.830498 -0.030749 -0.043370 -0.017972
-6.443278 130.437188 90.219464 176.083711 -52.236050 -3.598790 3.896175 27.089626 3.889739 0.544193 4.802110 0.527259 0.878300 7.586316 0.856110 2.980049 22.045803 2.975775 -0.867105 14.803898 -2.188434 -0.415408 -10.229754 -2.070481 0.666992 -3.753508 0.078141 8.652534 -17.596283 -8.127553 21.337219 -58.300293 -8.285721 24.695667 30.265281 -11.750312 -11.434151 -5.629680 0.052250 -4.336863 -21.142053 2.484215 25.257426 -38.446410 -37.759819 -6.428371 -15.330955 45.590577 5.706418 -25.355236 0.632081 -81.008669 86.134332 -84.465283 3.122537 -25.684486 8.208567 -0.001206 -0.004061 -0.000705 0.165685 -19.799838 -4.274970 137.783733 72.209428 148.326463 3.301370 -9.897352 -6.025369 -0.018503 -0.023948 -0.010816
-6.443588 130.435429 90.217135 176.098881 -52.206331 -3.589874 3.897273 27.108029 3.866404 0.548516 4.828403 0.524250 0.868341 7.549363 0.861783 2.994242 22.125148 2.952868 -0.891065 14.646181 -2.151869 -0.445769 -10.371103 -2.035657 0.667388 -3.752291 0.090050 8.634453 -17.605236 -8.110639 21.365374 -58.409800 -8.343500 24.677229 30.264785 -11.756878 -11.425688 -5.643062 0.073698 -4.289107 -21.136801 2.495194 25.453820 -38.458155 -37.966517 -6.464369 -15.265552 45.591323 5.712985 -25.380865 0.612479 -81.049902 86.124059 -84.512168 3.123842 -25.688475 8.218443 -0.001848 -0.002116 -0.001081 0.173204 -19.808022 -4.233841 137.866115 72.220410 148.426029 3.201599 -10.001897 -6.190091 -0.017027 -0.009478 -0.009954
-6.443847 130.437168 90.212183 176.101452 -52.195518 -3.570444 3.923490 27.196366 3.847083 0.539837 4.804295 0.526595 0.871420 7.568812 0.858056 2.997942 22.148887 2.938684 -0.915649 14.481852 -2.117233 -0.476579 -10.516932 -2.000672 0.672214 -3.749835 0.098162 8.618370 -17.611638 -8.094338 21.391788 -58.535550 -8.405015 24.691801 30.282142 -11.758872 -11.414279 -5.653191 0.095701 -4.232676 -21.126754 2.503603 25.653166 -38.497801 -38.193814 -6.579912 -15.191925 45.594397 5.736986 -25.392068 0.594772 -81.201192 86.114367 -84.658000 3.114559 -25.690850 8.223076 0.003356 -0.004484 0.001962 0.180775 -19.810407 -4.219742 137.943448 72.242306 148.512014 3.138851 -10.046011 -6.330688 -0.029870 -0.013168 -0.017463
-6.440617 130.439638 90.207323 176.101478 -52.188505 -3.562563 3.937272 27.239610 3.842943 0.533984 4.784075 0.525963 0.883726 7.634250 0.849698 2.996077 22.149598 2.928159 -0.940084 14.335842 -2.090385 -0.507794 -10.668669 -1.966390 0.685572 -3.721041 0.100615 8.603020 -17.613181 -8.077456 21.420897 -58.673344 -8.476509 24.715150 30.302491 -11.753103 -11.398197 -5.636616 0.106399 -4.167284 -21.113051 2.510292 25.846910 -38.563520 -38.432469 -6.690167 -15.108657 45.602053 5.744943 -25.398220 0.589517 -81.294801 86.106834 -84.758896 3.120511 -25.696717 8.229796 -0.001684 -0.006453 -0.000984 0.179225 -19.809518 -4.134171 138.130589 72.278642 148.693559 3.037360 -10.104056 -6.447262 -0.017981 -0.011926 -0.010512
-6.437716 130.439297 90.204800 176.110026 -52.167807 -3.560184 3.939350 27.256659 3.836714 0.530721 4.778111 0.524255 0.893861 7.680727 0.846554 2.996206 22.169900 2.915241 -0.967741 14.180913 -2.064938 -0.542163 -10.829221 -1.932891 0.701357 -3.689586 0.101835 8.585396 -17.610471 -8.059134 21.461854 -58.820552 -8.562137 24.679309 30.316033 -11.777741 -11.397026 -5.674909 0.131070 -4.077402 -21.039243 2.497513 26.038128 -38.651833 -38.678174 -6.749269 -15.032381 45.630691 5.747219 -25.418687 0.578799 -81.356547 86.098573 -84.821147 3.130349 -25.702353 8.221190 -0.004552 -0.006152 -0.002661 0.172550 -19.831809 -4.046982 138.243856 72.275837 148.792580 2.908823 -10.169986 -6.535896 -0.007278 -0.005466 -0.004255
-6.433969 130.439465 90.202263 176.118447 -52.150395 -3.560515 3.933976 27.251945 3.830348 0.551583 4.857468 0.522995 0.889281 7.667035 0.845113 2.997172 22.190107 2.904661 -0.999951 14.016052 -2.039806 -0.581167 -10.999546 -1.898808 0.719266 -3.654439 0.100372 8.564039 -17.604469 -8.040185 21.439991 -59.014652 -8.596593 24.703970 30.354686 -11.776210 -11.379171 -5.624795 0.126218 -4.020097 -21.047387 2.520115 26.227268 -38.757937 -38.925785 -6.825701 -14.955729 45.652611 5.753941 -25.439586 0.571060 -81.477416 86.088730 -84.937467 3.140025 -25.704838 8.219667 -0.004080 -0.007900 -0.002385 0.172128 -19.856434 -3.982221 138.387111 72.292669 148.932983 2.842140 -10.193789 -6.580089 0.012789 -0.007987 0.007477
-6.434595 130.436243 90.202047 176.146417 -52.116890 -3.559096 3.924765 27.271734 3.814977 0.543331 4.836887 0.520401 0.899900 7.715477 0.841163 2.999284 22.211101 2.895752 -1.037010 13.840146 -2.012027 -0.625763 -11.180848 -1.861028 0.738339 -3.617981 0.096614 8.542371 -17.597298 -8.020709 21.466891 -59.181224 -8.682892 24.696522 30.364605 -11.779629 -11.363495 -5.568313 0.119405 -3.967579 -21.064367 2.545255 26.411870 -38.877191 -39.170036 -6.908289 -14.879825 45.666740 5.748311 -25.471896 0.541904 -81.592014 86.085865 -85.055943 3.141846 -25.713966 8.223249 -0.004146 -0.004562 -0.002424 0.171122 -19.899976 -3.937100 138.464596 72.287091 148.996808 2.757080 -10.229832 -6.598098 0.025167 -0.002143 0.014714
-6.435268 130.436538 90.199382 176.155111 -52.103257 -3.541454 3.951124 27.357105 3.805822 0.526824 4.798271 0.519164 0.904692 7.736785 0.839779 3.002721 22.233945 2.887028 -1.080301 13.653308 -1.979306 -0.678015 -11.372914 -1.816826 0.754625 -3.583909 0.095006 8.523600 -17.590885 -8.003047 21.482182 -59.353176 -8.763208 24.687887 30.371259 -11.782504 -11.356736 -5.540628 0.121717 -3.908727 -21.057958 2.560732 26.595491 -39.002392 -39.412954 -6.991888 -14.801812 45.684549 5.761068 -25.489896 0.515062 -81.781109 86.084817 -85.245841 3.138558 -25.718474 8.226249 -0.003509 -0.006388 -0.002052 0.188479 -19.923393 -3.887421 138.580421 72.272908 149.060856 2.691867 -10.280124 -6.596085 0.006293 0.004945 0.003680
